<svg width="92" height="103" viewBox="0 0 92 103" fill="none" xmlns="http://www.w3.org/2000/svg">
<path d="M0.905273 0.102539L9.12471 92.3785L46.0063 102.662L82.991 92.3409L91.2169 0.102539H0.905273ZM74.1413 21.2434L71.4053 51.9835L71.4134 52.1495L71.402 52.5312V52.5279L69.4581 74.0219L69.2439 75.9315L46.0611 82.3435L46.0431 82.3599L22.9003 75.9119L21.3333 58.1414H32.6819L33.4871 67.1774L46.0644 70.5862L46.0611 70.5927V70.5911L58.685 67.1341L60.019 52.4192H33.6294L33.4029 49.9317L32.8871 44.1041L32.6165 40.9749H61.022L62.0553 29.5307H18.791L18.5646 27.0448L18.0496 21.2156L17.7782 18.0864H74.4118L74.1413 21.2434Z" fill="#1572B6"/>
</svg>
