<svg width="100" height="97" viewBox="0 0 100 97" fill="none" xmlns="http://www.w3.org/2000/svg">
<path fill-rule="evenodd" clip-rule="evenodd" d="M50.0486 0.236816C22.7892 0.236816 0.68457 22.3365 0.68457 49.6009C0.68457 71.412 14.8289 89.915 34.4427 96.4431C36.909 96.9009 37.8147 95.3723 37.8147 94.0684C37.8147 92.8913 37.7689 89.0027 37.7477 84.8779C24.0145 87.864 21.1167 79.0535 21.1167 79.0535C18.8712 73.3477 15.6357 71.8306 15.6357 71.8306C11.1561 68.7668 15.9733 68.8305 15.9733 68.8305C20.9295 69.1779 23.5404 73.9175 23.5404 73.9175C27.9432 81.4626 35.0885 79.2816 37.9054 78.0211C38.3485 74.8306 39.6278 72.6521 41.0395 71.4194C30.0751 70.1728 18.5483 65.9392 18.5483 47.0243C18.5483 41.6348 20.4774 37.2313 23.6352 33.7734C23.1219 32.5309 21.4322 27.5102 24.1126 20.7106C24.1126 20.7106 28.2571 19.3839 37.6904 25.7706C41.6289 24.6761 45.8527 24.1259 50.0486 24.1071C54.2421 24.1259 58.4683 24.6744 62.4142 25.769C71.8361 19.3823 75.9756 20.709 75.9756 20.709C78.6626 27.5077 76.9729 32.5293 76.4604 33.7718C79.6255 37.2296 81.5408 41.6332 81.5408 47.0226C81.5408 65.9825 69.9927 70.1564 59.0005 71.3793C60.7719 72.9112 62.3496 75.9162 62.3496 80.5209C62.3496 87.1258 62.2924 92.4417 62.2924 94.0676C62.2924 95.3812 63.1818 96.9205 65.6831 96.4358C85.2855 89.9011 99.4135 71.4038 99.4135 49.6009C99.4127 22.3382 77.3105 0.237634 50.0486 0.237634V0.236816Z" fill="#181616"/>
</svg>
