<svg width="105" height="105" viewBox="0 0 105 105" fill="none" xmlns="http://www.w3.org/2000/svg">
<path d="M62.8055 45.5781C60.5682 45.5781 58.9022 46.6767 58.9022 49.3211C58.9022 51.3133 60 52.6964 62.6854 52.6964C64.9611 52.6964 66.5077 51.355 66.5077 49.2386C66.5077 46.8402 65.1238 45.5781 62.8055 45.5781V45.5781ZM58.3333 64.2486C57.8036 64.8984 57.2755 65.5892 57.2755 66.4042C57.2755 68.0301 59.3485 68.5189 62.1973 68.5189C64.5557 68.5189 67.7691 68.3538 67.7691 66.1606C67.7691 64.8568 66.2225 64.7766 64.2696 64.654L58.3333 64.2486ZM70.3702 45.7007C71.1018 46.6366 71.8759 47.938 71.8759 49.8092C71.8759 54.3231 68.3372 56.9667 63.2134 56.9667C61.9104 56.9667 60.7308 56.8049 59.9992 56.6013L58.657 58.7569L62.642 58.9997C69.6786 59.4485 73.8264 59.6521 73.8264 65.0595C73.8264 69.7377 69.7195 72.3797 62.642 72.3797C55.2801 72.3797 52.4746 70.5086 52.4746 67.2968C52.4746 65.4658 53.2888 64.4922 54.712 63.1475C53.3689 62.5802 52.9226 61.5641 52.9226 60.4654C52.9226 59.5703 53.3697 58.7569 54.1021 57.9836C54.8346 57.212 55.6479 56.4378 56.6232 55.5436C54.6302 54.5675 53.1261 52.4528 53.1261 49.4421C53.1261 44.7655 56.2169 41.5538 62.4393 41.5538C64.1886 41.5538 65.2472 41.7148 66.1816 41.9608H74.1133V45.417L70.3702 45.7007V45.7007ZM81.2684 38.3109C78.9493 38.3109 77.6071 36.9679 77.6071 34.6488C77.6071 32.3329 78.9493 31.0708 81.2684 31.0708C83.6276 31.0708 84.969 32.3321 84.969 34.6488C84.9698 36.9679 83.6276 38.3109 81.2684 38.3109V38.3109ZM76.0204 62.7526V59.5409L78.0959 59.2564C78.6648 59.1747 78.7458 59.0529 78.7458 58.4414V46.4846C78.7458 46.0383 78.6248 45.7522 78.2169 45.6312L76.0204 44.8579L76.4675 41.5652H84.8881V58.4422C84.8881 59.0946 84.9273 59.1747 85.5388 59.2572L87.6134 59.5417V62.7535H76.0204V62.7526ZM103.697 61.175C101.947 62.0276 99.3855 62.8017 97.0656 62.8017C92.2263 62.8017 90.3968 60.8513 90.3968 56.2531V45.5977C90.3968 45.3549 90.3968 45.1914 90.0707 45.1914H87.2243V41.5717C90.8048 41.1638 92.2271 39.3744 92.6743 34.9414H96.5392V40.7183C96.5392 41.002 96.5391 41.1254 96.8645 41.1254H102.599V45.1922H96.5392V54.9117C96.5392 57.3109 97.1089 58.246 99.3046 58.246C100.445 58.246 101.623 57.9624 102.599 57.5962L103.697 61.175V61.175Z" fill="#31251C"/>
<path d="M43.4357 50.5018L24.8396 31.9065C24.3253 31.3924 23.6279 31.1035 22.9006 31.1035C22.1734 31.1035 21.4759 31.3924 20.9616 31.9065L17.1 35.7681L21.9973 40.6663C22.5732 40.4705 23.1924 40.4399 23.7848 40.578C24.3772 40.7161 24.919 41.0174 25.3489 41.4478C25.7813 41.8805 26.0833 42.4263 26.2202 43.0226C26.357 43.6189 26.3234 44.2417 26.123 44.8197L30.8438 49.5405C31.5415 49.2974 32.3011 49.2985 32.9981 49.5437C33.6951 49.7888 34.2882 50.2635 34.6801 50.8898C35.0719 51.5162 35.2394 52.2571 35.1551 52.9912C35.0707 53.7252 34.7395 54.4088 34.2157 54.9299C33.6825 55.4642 32.9806 55.7971 32.2295 55.8719C31.4784 55.9467 30.7246 55.7589 30.0965 55.3403C29.4683 54.9217 29.0047 54.2984 28.7846 53.5764C28.5645 52.8544 28.6015 52.0784 28.8892 51.3806L24.4865 46.9778L24.4857 58.5643C24.9504 58.7938 25.3537 59.1308 25.6624 59.5472C25.971 59.9636 26.1759 60.4476 26.2603 60.959C26.3447 61.4704 26.306 61.9945 26.1475 62.488C25.989 62.9815 25.7153 63.4302 25.3489 63.7968C25.0072 64.1383 24.5941 64.3997 24.1391 64.5622C23.6842 64.7247 23.1989 64.7842 22.7182 64.7364C22.2375 64.6886 21.7735 64.5347 21.3595 64.2858C20.9454 64.0369 20.5918 63.6992 20.3242 63.2971C20.0565 62.895 19.8814 62.4385 19.8115 61.9605C19.7416 61.4825 19.7787 60.995 19.9201 60.533C20.0615 60.0711 20.3036 59.6464 20.629 59.2894C20.9545 58.9324 21.3551 58.6521 21.802 58.4687V46.7751C21.4034 46.6118 21.0412 46.3713 20.7361 46.0673C20.431 45.7634 20.1892 45.402 20.0245 45.0041C19.8598 44.6061 19.7755 44.1795 19.7766 43.7489C19.7776 43.3182 19.8639 42.892 20.0306 42.4949L15.2027 37.6654L2.45134 50.416C2.19648 50.6707 1.99432 50.9732 1.85639 51.3061C1.71845 51.639 1.64746 51.9958 1.64746 52.3562C1.64746 52.7165 1.71845 53.0734 1.85639 53.4063C1.99432 53.7392 2.19648 54.0417 2.45134 54.2964L21.0475 72.8917C21.562 73.406 22.2598 73.6949 22.9873 73.6949C23.7148 73.6949 24.4125 73.406 24.9271 72.8917L43.4357 54.3814C43.6906 54.1267 43.8927 53.8243 44.0306 53.4915C44.1686 53.1587 44.2395 52.8019 44.2395 52.4416C44.2395 52.0813 44.1686 51.7246 44.0306 51.3917C43.8927 51.0589 43.6906 50.7565 43.4357 50.5018V50.5018Z" fill="#F34F29"/>
</svg>
