<svg width="104" height="103" viewBox="0 0 104 103" fill="none" xmlns="http://www.w3.org/2000/svg">
<path d="M0.824219 0.21582H103.156V102.548H0.824219V0.21582Z" fill="#F0DB4F"/>
<path d="M94.7809 78.1415C94.0313 73.4731 90.9871 69.5518 81.9698 65.8953C78.8374 64.4558 75.3452 63.425 74.3046 61.0511C73.9351 59.6696 73.8861 58.8914 74.1199 58.0552C74.791 55.3413 78.0306 54.4952 80.5982 55.2734C82.2519 55.8276 83.8173 57.102 84.7614 59.135C89.1773 56.2756 89.1683 56.2944 92.2517 54.3293C91.1228 52.5791 90.5203 51.7715 89.7814 51.0227C87.1255 48.0562 83.5066 46.5283 77.7191 46.6452L74.7044 47.0352C71.8155 47.7651 69.0623 49.2815 67.4479 51.3145C62.6037 56.811 63.9852 66.4308 69.8798 70.3897C75.6869 74.7483 84.2178 75.7398 85.3075 79.8156C86.3677 84.8053 81.6404 86.4206 76.9417 85.8468C73.479 85.1266 71.5531 83.3666 69.4711 80.1663C65.6389 82.3841 65.6389 82.3841 61.6988 84.65C62.6331 86.6928 63.6149 87.6174 65.1811 89.3871C72.5937 96.906 91.1432 96.5365 94.4703 85.156C94.6051 84.7653 95.5011 82.1593 94.7809 78.1415ZM56.4548 47.2477H46.8833L46.8441 71.9935C46.8441 77.2562 47.1163 82.0808 46.2604 83.5596C44.8601 86.468 41.2315 86.1075 39.5778 85.5435C37.8947 84.7162 37.0388 83.5399 36.0472 81.8773C35.775 81.3999 35.5707 81.0304 35.502 81.0018L27.7199 85.7675C29.0139 88.4234 30.9202 90.7286 33.3619 92.2261C37.0094 94.4153 41.9116 95.0864 47.0386 93.9093C50.3755 92.9373 53.2545 90.9239 54.7619 87.8593C56.9412 83.8416 56.4736 78.9786 56.454 73.5998C56.5031 64.8245 56.4548 56.0508 56.4548 47.2477Z" fill="#323330"/>
</svg>
