<svg width="103" height="93" viewBox="0 0 103 93" fill="none" xmlns="http://www.w3.org/2000/svg">
<path d="M51.3295 55.7013C56.4762 55.7013 60.6484 51.529 60.6484 46.3824C60.6484 41.2357 56.4762 37.0634 51.3295 37.0634C46.1828 37.0634 42.0106 41.2357 42.0106 46.3824C42.0106 51.529 46.1828 55.7013 51.3295 55.7013Z" fill="#61DAFB"/>
<path d="M86.725 31.0143C84.9266 30.3604 83.0465 29.7064 81.0846 29.1342C81.5751 27.1723 81.9838 25.2105 82.3108 23.3303C84.0274 12.54 82.1473 4.93774 76.9156 1.99493C75.3625 1.09574 73.6458 0.687012 71.6839 0.687012C65.9618 0.687012 58.6865 4.93774 51.3295 12.0495C43.9724 4.93774 36.6972 0.687012 30.975 0.687012C29.0131 0.687012 27.2965 1.09574 25.7434 1.99493C20.5117 5.01949 18.6316 12.6218 20.3482 23.3303C20.6752 25.2105 21.0839 27.1723 21.5744 29.1342C19.6125 29.7064 17.7324 30.2786 15.934 31.0143C5.71587 34.9381 0.157227 40.3332 0.157227 46.3824C0.157227 52.4315 5.79762 57.8266 15.934 61.7504C17.7324 62.4043 19.6125 63.0583 21.5744 63.6305C21.0839 65.5924 20.6752 67.5543 20.3482 69.4344C18.6316 80.2247 20.5117 87.827 25.7434 90.7698C27.2965 91.669 29.0131 92.0777 30.975 92.0777C36.7789 92.0777 44.0542 87.827 51.3295 80.7152C58.6865 87.827 65.9618 92.0777 71.6839 92.0777C73.6458 92.0777 75.3625 91.669 76.9156 90.7698C82.1473 87.7452 84.0274 80.143 82.3108 69.4344C81.9838 67.5543 81.5751 65.5924 81.0846 63.6305C83.0465 63.0583 84.9266 62.4861 86.725 61.7504C96.9431 57.8266 102.502 52.4315 102.502 46.3824C102.502 40.3332 96.9431 34.9381 86.725 31.0143ZM74.6267 6.08217C77.9783 8.04404 79.1227 14.0932 77.7331 22.6764C77.4878 24.393 77.0791 26.1914 76.5886 28.0715C72.3379 27.0906 67.8419 26.4366 63.1007 26.0279C60.3214 22.1041 57.4603 18.5891 54.5993 15.4011C60.6484 9.43371 66.7792 5.34647 71.7657 5.34647C72.8284 5.34647 73.8093 5.5917 74.6267 6.08217ZM65.4713 54.5568C63.9999 57.1727 62.2833 59.7885 60.4849 62.4043C57.4603 62.6496 54.4358 62.7313 51.3295 62.7313C48.1414 62.7313 45.1169 62.6496 42.1741 62.4043C40.3757 59.7885 38.7408 57.1727 37.2694 54.5568C35.7162 51.8593 34.2448 49.0799 32.9369 46.3824C34.2448 43.6848 35.7162 40.9055 37.2694 38.2079C38.7408 35.592 40.4574 32.9762 42.2558 30.3604C45.2804 30.1151 48.3049 30.0334 51.4112 30.0334C54.5993 30.0334 57.6238 30.1151 60.5666 30.3604C62.365 32.9762 63.9999 35.592 65.4713 38.2079C67.0245 40.9055 68.4959 43.6848 69.8038 46.3824C68.4141 49.0799 67.0245 51.7775 65.4713 54.5568ZM72.2561 51.8593C73.4823 54.7203 74.4633 57.4997 75.3624 60.279C72.5831 60.9329 69.6403 61.4234 66.534 61.8321C67.5149 60.279 68.5776 58.6441 69.4768 56.9274C70.4578 55.2108 71.357 53.4942 72.2561 51.8593ZM51.3295 74.0121C49.3676 71.8867 47.4875 69.5979 45.6891 67.2273C47.5692 67.309 49.4493 67.3908 51.3295 67.3908C53.2096 67.3908 55.0897 67.309 56.9699 67.2273C55.1715 69.5979 53.2914 71.8867 51.3295 74.0121ZM36.1249 61.7504C33.0186 61.3417 30.0758 60.8512 27.2965 60.1972C28.1957 57.4997 29.1766 54.6386 30.4028 51.7775C31.302 53.4124 32.2012 55.129 33.1821 56.7639C34.1631 58.5623 35.144 60.1155 36.1249 61.7504ZM30.4028 40.9055C29.1766 38.0444 28.1957 35.2651 27.2965 32.4857C30.0758 31.8318 33.0186 31.3413 36.1249 30.9326C35.144 32.4857 34.0813 34.1206 33.1821 35.8373C32.2012 37.5539 31.302 39.2706 30.4028 40.9055ZM51.3295 18.7526C53.2914 20.878 55.1715 23.1668 56.9699 25.5374C55.0897 25.4557 53.2096 25.3739 51.3295 25.3739C49.4493 25.3739 47.5692 25.4557 45.6891 25.5374C47.4875 23.1668 49.3676 20.878 51.3295 18.7526ZM69.4768 35.919L66.534 31.0143C69.6403 31.4231 72.5831 31.9135 75.3624 32.5675C74.4633 35.2651 73.4823 38.1261 72.2561 40.9872C71.357 39.2706 70.4578 37.5539 69.4768 35.919ZM24.9259 22.6764C23.5362 14.0932 24.6807 8.04404 28.0322 6.08217C28.8497 5.5917 29.8306 5.34647 30.8933 5.34647C35.798 5.34647 41.9288 9.35196 48.0597 15.4011C45.1986 18.5074 42.3375 22.1041 39.5582 26.0279C34.817 26.4366 30.3211 27.1723 26.0703 28.0715C25.5799 26.1914 25.2529 24.393 24.9259 22.6764ZM4.73494 46.3824C4.73494 42.5404 9.39439 38.4531 17.5689 35.4286C19.2038 34.7746 21.0022 34.2024 22.8005 33.7119C24.1085 37.7992 25.7433 42.1316 27.7052 46.4641C25.7433 50.7966 24.0267 55.0473 22.8005 59.1345C11.5198 55.8648 4.73494 50.9601 4.73494 46.3824ZM28.0322 86.6825C24.6807 84.7207 23.5362 78.6716 24.9259 70.0883C25.1711 68.3717 25.5799 66.5733 26.0703 64.6932C30.3211 65.6741 34.817 66.3281 39.5582 66.7368C42.3375 70.6606 45.1986 74.1756 48.0597 77.3636C42.0106 83.331 35.8797 87.4182 30.8933 87.4182C29.8306 87.4182 28.8497 87.173 28.0322 86.6825ZM77.7331 70.0883C79.1227 78.6716 77.9783 84.7207 74.6267 86.6825C73.8093 87.173 72.8284 87.4182 71.7657 87.4182C66.861 87.4182 60.7301 83.4128 54.5993 77.3636C57.4603 74.2573 60.3214 70.6606 63.1007 66.7368C67.8419 66.3281 72.3379 65.5924 76.5886 64.6932C77.0791 66.5733 77.4061 68.3717 77.7331 70.0883ZM85.0901 57.3362C83.4552 57.9901 81.6568 58.5623 79.8584 59.0528C78.5505 54.9656 76.9156 50.6331 74.9537 46.3006C76.9156 41.9681 78.6322 37.7174 79.8584 33.6302C91.1392 36.9 97.924 41.8046 97.924 46.3824C97.924 50.2244 93.1828 54.3116 85.0901 57.3362Z" fill="#61DAFB"/>
</svg>
