<svg width="109" height="109" viewBox="0 0 109 109" fill="none" xmlns="http://www.w3.org/2000/svg">
<path d="M74.0997 44.4171C67.7578 45.1781 67.7578 52.1965 67.7578 52.1965H80.357C80.4416 52.1965 81.0335 44.4171 74.0997 44.4171ZM32.835 53.4649H43.6585L38.2467 32.8325L32.835 53.4649Z" fill="#1F0740"/>
<path d="M0.533203 0.10791V108.343H108.769V0.10791H0.533203ZM49.1545 75.027L45.3494 61.4131H31.1435L27.4229 75.027H19.4744L33.0038 28.6042V25.391H43.32L57.9486 75.027H49.1545ZM88.0516 58.4535H67.7575C69.3641 74.6888 85.6839 66.9094 85.6839 66.9094V73.6741C85.6839 73.6741 84.5847 75.8726 73.1692 75.8726C61.7538 75.8726 59.3861 60.3984 59.3861 60.3984V56.4241C59.3861 56.4241 60.4854 37.8211 74.0148 37.8211C87.5442 37.8211 87.967 50.1667 87.967 50.1667V58.4535H88.0516Z" fill="#1F0740"/>
</svg>
