<svg width="110" height="109" viewBox="0 0 110 109" fill="none" xmlns="http://www.w3.org/2000/svg">
<path d="M56.8877 59.3261C57.0906 55.7391 58.8554 52.5724 61.5257 50.3341C64.142 48.1339 67.6546 46.7886 71.5113 46.7886C75.3477 46.7886 78.8595 48.1331 81.4723 50.3341C84.1469 52.5724 85.9007 55.7391 86.1104 59.3261C86.3133 63.0044 84.8226 66.4375 82.2164 68.9802C79.5461 71.5592 75.7671 73.1887 71.5113 73.1887C67.2521 73.1887 63.4562 71.5694 60.8028 68.9802C58.1865 66.4384 56.6991 63.0239 56.908 59.343L56.8877 59.3261Z" fill="#235785"/>
<path d="M33.9832 66.9112C34.0069 68.3149 34.4601 71.0462 35.1332 73.172C36.5555 77.684 38.9696 81.8587 42.3122 85.5167C45.747 89.2923 49.9851 92.3279 54.8692 94.4884C60.0045 96.7461 65.5786 97.902 71.3624 97.902C77.1463 97.8944 82.7204 96.7182 87.8548 94.4334C92.7389 92.2501 96.9787 89.2178 100.412 85.422C103.772 81.7234 106.179 77.5521 107.592 73.0367C108.299 70.7938 108.752 68.4784 108.94 66.1341C109.116 63.8595 109.042 61.5637 108.718 59.268C108.084 54.8444 106.523 50.6046 104.137 46.826C101.961 43.3168 99.1349 40.2642 95.7746 37.6826L95.7847 37.6792L61.9992 11.8837C61.9688 11.86 61.9417 11.8364 61.9113 11.8161C59.6967 10.1232 55.955 10.13 53.5315 11.8228C51.0675 13.5402 50.7834 16.3763 52.9768 18.1614L52.9667 18.1681L67.0728 29.57L24.1262 29.6132H24.0687C20.5197 29.6166 17.1019 31.9292 16.433 34.8668C15.7396 37.8441 18.1538 40.3293 21.8549 40.3293L21.8482 40.3428L43.6102 40.3023L4.67088 69.8894C4.62353 69.9266 4.56941 69.9638 4.52206 70.001C0.856436 72.7864 -0.326542 77.4337 1.98191 80.3544C4.33096 83.3326 9.30978 83.3528 13.0143 80.3713L34.2031 63.1128C34.2031 63.1128 33.8919 65.445 33.9189 66.8309L33.9832 66.9112ZM88.5744 74.7067C84.2044 79.1274 78.0756 81.649 71.4707 81.649C64.8489 81.6591 58.72 79.1816 54.3492 74.7642C52.2132 72.6003 50.6481 70.1363 49.6748 67.4998C48.7234 64.9054 48.3564 62.133 48.6 59.3804C48.8314 56.6948 49.6322 54.0892 50.9491 51.7371C52.2234 49.4422 53.9847 47.357 56.141 45.5923C60.3968 42.1609 65.7976 40.282 71.4461 40.282C77.1192 40.2752 82.5208 42.1203 86.7767 45.555C88.9329 47.3096 90.6875 49.3847 91.9686 51.6796C93.2882 54.0315 94.0881 56.639 94.3142 59.3263C94.5543 62.0777 94.1874 64.8482 93.2395 67.4423C92.2696 70.0991 90.701 72.5631 88.5609 74.727L88.5744 74.7067Z" fill="#E87500"/>
</svg>
