<svg width="71" height="107" viewBox="0 0 71 107" fill="none" xmlns="http://www.w3.org/2000/svg">
<path d="M18.0185 106.108C27.7461 106.108 35.5936 98.26 35.5936 88.5324V70.9573H18.0185C8.29086 70.9573 0.443359 78.8048 0.443359 88.5324C0.443359 98.26 8.29086 106.108 18.0185 106.108Z" fill="#0ACF83"/>
<path d="M0.443359 53.3821C0.443359 43.6545 8.29086 35.807 18.0185 35.807H35.5936V70.9573H18.0185C8.29086 70.9573 0.443359 63.1098 0.443359 53.3821Z" fill="#A259FF"/>
<path d="M0.443359 18.2319C0.443359 8.50424 8.29086 0.656738 18.0185 0.656738H35.5936V35.807H18.0185C8.29086 35.807 0.443359 27.9595 0.443359 18.2319Z" fill="#F24E1E"/>
<path d="M35.5936 0.656738H53.1688C62.8964 0.656738 70.7439 8.50424 70.7439 18.2319C70.7439 27.9595 62.8964 35.807 53.1688 35.807H35.5936V0.656738Z" fill="#FF7262"/>
<path d="M70.7439 53.3821C70.7439 63.1098 62.8964 70.9573 53.1688 70.9573C43.4411 70.9573 35.5936 63.1098 35.5936 53.3821C35.5936 43.6545 43.4411 35.807 53.1688 35.807C62.8964 35.807 70.7439 43.6545 70.7439 53.3821Z" fill="#1ABCFE"/>
</svg>
