<svg width="109" height="109" viewBox="0 0 109 109" fill="none" xmlns="http://www.w3.org/2000/svg">
<path fill-rule="evenodd" clip-rule="evenodd" d="M40.7818 58.4536H53.7793C51.5419 50.8433 49.3383 43.808 47.1702 36.6577C45.0664 43.8334 42.9321 50.8433 40.7818 58.4536ZM105.179 0.953613H2.66097C0.812511 0.953613 1.07718 1.35611 1.07718 3.13946V105.789C1.07718 107.57 0.812511 107.498 2.53075 107.498H105.309C107.027 107.498 107.621 107.57 107.621 105.788V3.26968C107.621 1.35611 107.028 0.953613 105.179 0.953613ZM65.5939 81.2845C64.2096 81.2845 62.8203 81.172 61.4429 81.271C60.4493 81.3454 60.117 80.9277 59.8523 80.0652C58.5721 75.8956 57.2116 71.7277 55.9305 67.5589C55.6726 66.7201 55.3039 66.414 54.3949 66.425C49.7247 66.4791 45.052 66.474 40.381 66.4191C39.3975 66.4072 38.9452 66.6693 38.6644 67.6452C37.4755 71.7919 36.175 75.9049 34.9734 80.0474C34.713 80.9454 34.3173 81.2591 33.3634 81.2346C30.5578 81.1644 27.7479 81.2076 24.6759 81.2076C25.4868 78.6327 26.2224 76.2516 26.9835 73.8805C31.646 59.3364 36.3247 44.7923 40.9534 30.2389C41.2764 29.2259 41.7255 28.9138 42.7655 28.9367C46.0515 29.0094 49.34 28.9553 52.6276 28.9367C53.2424 28.9324 53.6618 28.9688 53.8867 29.6673C59.3873 46.6771 64.9073 63.7918 70.4222 80.8C70.4459 80.8769 70.4306 81.2845 70.4433 81.2845H65.5939ZM83.0992 81.2845H72.9522V43.233H83.0992V81.2845ZM77.7298 38.0995C74.6307 38.0952 72.4118 35.9618 72.3907 32.9667C72.3704 29.9801 74.6797 27.7588 77.8075 27.7554C80.9599 27.752 83.1813 29.9006 83.2058 32.9735C83.2278 35.9711 80.9506 38.1045 77.7298 38.0995Z" fill="#FAA625"/>
</svg>
