<svg width="109" height="109" viewBox="0 0 109 109" fill="none" xmlns="http://www.w3.org/2000/svg">
<path fill-rule="evenodd" clip-rule="evenodd" d="M43.1526 35.298C40.0391 34.5159 36.9214 34.767 33.6313 35.2794C33.6313 41.0337 33.6194 46.6331 33.6625 52.2335C33.6642 52.5201 34.0946 53.019 34.3737 53.0571C37.9615 53.5416 41.5299 53.5805 44.8852 51.9451C48.3563 50.2539 50.1245 46.7177 49.6661 42.5659C49.2501 38.7852 47.0118 36.2679 43.1526 35.298ZM108.055 54.1944V2.88578C108.055 1.11343 108.074 0.953613 106.354 0.953613H3.60696C1.93354 0.953613 1.51074 1.11428 1.51074 2.80207V105.549C1.51074 107.255 1.72383 107.258 3.37865 107.258C37.6715 107.258 72.0666 107.25 106.359 107.289C107.69 107.291 108.046 106.936 108.043 105.632C107.997 88.4864 108.055 71.3387 108.055 54.1944ZM48.3157 59.1326C43.6168 60.8086 38.7166 60.9024 33.6431 60.5092V79.5933H24.3416V78.4078C24.3416 62.4304 24.2681 46.4547 24.2232 30.4782C24.2182 29.1514 24.4287 28.5105 25.9237 28.3583C32.9692 27.6378 39.9749 26.8278 46.9806 28.4707C54.5114 30.2355 58.8535 35.2143 59.1832 42.0932C59.5917 50.6116 55.8482 56.4462 48.3157 59.1326ZM85.7838 69.9173C85.4252 74.7971 82.6737 78.0011 78.1608 79.5502C72.1216 81.6236 66.1154 81.1424 60.2132 78.7968C59.2467 78.412 59.0598 77.925 59.3786 76.9399C59.9595 75.1421 60.3848 73.2937 60.833 71.6245C63.3283 72.3568 65.701 73.2709 68.1592 73.7029C69.8952 74.0082 71.7715 73.8289 73.5363 73.5524C75.1184 73.3038 76.2565 72.2299 76.5161 70.532C76.7799 68.8062 76.2599 67.3111 74.7362 66.3928C73.5253 65.6639 72.1909 65.1422 70.9116 64.5309C68.8542 63.5474 66.6616 62.7763 64.7641 61.5459C57.2967 56.7032 59.7278 47.6927 64.7109 44.2993C67.377 42.4847 70.3272 41.6797 73.4855 41.5689C77.2002 41.4387 80.777 42.0796 84.2905 43.7869L82.4344 50.3732C80.9631 49.8523 79.5932 49.1758 78.1472 48.9069C76.4315 48.5873 74.6321 48.4089 72.9004 48.5501C70.5784 48.7403 69.2187 50.3427 69.2187 52.3299C69.2187 53.5069 69.6652 54.503 70.6469 55.0738C72.0556 55.8932 73.5506 56.5688 75.0321 57.2546C76.6353 57.9962 78.3282 58.5661 79.8714 59.4125C83.9894 61.6702 86.133 65.1625 85.7838 69.9173Z" fill="#80B5E2"/>
</svg>
