<svg width="109" height="109" viewBox="0 0 109 109" fill="none" xmlns="http://www.w3.org/2000/svg">
<path d="M42.6333 32.6631H36.376V50.1668H42.6333C46.8613 50.1668 50.3282 46.6999 50.3282 42.4719V40.4425C50.3282 36.13 46.8613 32.6631 42.6333 32.6631Z" fill="#2A0634"/>
<path d="M0.0996094 0.10791V108.343H108.335V0.10791H0.0996094ZM43.3937 57.1851H36.3753V75.1962H28.2577V25.7292H43.9011C51.8496 25.6447 58.3606 31.9866 58.4452 39.9351V41.88C58.4452 50.2513 51.6805 57.1006 43.3937 57.1851ZM82.3754 45.1778C82.3754 45.1778 76.4562 45.1778 73.8349 46.277V75.1962H65.2945V41.4572C65.2945 41.4572 73.9195 37.1447 82.3754 38.2439V45.1778Z" fill="#2A0634"/>
</svg>
