<svg width="110" height="109" viewBox="0 0 110 109" fill="none" xmlns="http://www.w3.org/2000/svg">
<path d="M4.05846 38.1957C4.05846 38.1957 1.49887 36.3431 4.57427 33.8722L11.7347 27.4508C11.7347 27.4508 13.7861 25.287 15.9534 27.1735L82.0572 77.3405V101.398C82.0572 101.398 82.0242 105.176 77.1892 104.76L4.05846 38.1957Z" fill="#2489CA"/>
<path d="M21.0994 53.7002L4.05821 69.2277C4.05821 69.2277 2.30785 70.5325 4.05821 72.868L11.9695 80.0783C11.9695 80.0783 13.8484 82.1035 16.627 79.801L34.688 66.0703L21.0994 53.7002Z" fill="#1070B3"/>
<path d="M51.0116 53.829L82.2586 29.9115L82.0565 5.98393C82.0565 5.98393 80.7222 0.761573 76.2701 3.48183L34.6875 41.4158L51.0116 53.829Z" fill="#0877B9"/>
<path d="M77.188 104.789C79.0018 106.652 81.202 106.041 81.202 106.041L105.552 94.0148C108.67 91.8839 108.234 89.2414 108.234 89.2414V17.413C108.234 14.2547 105.01 13.1647 105.01 13.1647L83.9036 2.96607C79.2926 0.108831 76.2705 3.48188 76.2705 3.48188C76.2705 3.48188 80.1543 0.677066 82.0569 5.98482V100.959C82.0569 101.612 81.9182 102.253 81.6408 102.831C81.0861 103.957 79.8769 105.004 76.9867 104.565L77.188 104.789Z" fill="#3C99D4"/>
</svg>
