<svg width="24" height="28" viewBox="0 0 24 28" fill="none" xmlns="http://www.w3.org/2000/svg">
<path d="M2.16743 19.6907L19.0623 3.78065C19.4955 3.37145 20.082 3.29608 20.3725 3.60423L22.6965 6.06944C22.987 6.37759 22.8742 6.9601 22.441 7.3693L5.54048 23.2714C5.36652 23.4308 5.16433 23.5504 4.95212 23.6053L1.90747 24.3969C1.21183 24.5796 0.595785 23.9224 0.81665 23.2393L1.79272 20.2498C1.86249 20.0447 1.98667 19.8489 2.16178 19.6828L2.16743 19.6907Z" stroke="#0B0C0E" stroke-width="1.37947" stroke-miterlimit="10"/>
<path d="M14.8073 7.78763L19.2875 3.5668C19.5956 3.27629 20.0832 3.28907 20.3737 3.59722L22.6977 6.06243C22.9882 6.37059 22.9755 6.85813 22.6673 7.14864L18.1872 11.3695L14.8141 7.78879L14.8073 7.78763Z" fill="#0B0C0E" stroke="#0B0C0E" stroke-width="1.37947" stroke-miterlimit="10"/>
</svg>
