<svg width="26" height="28" viewBox="0 0 26 28" fill="none" xmlns="http://www.w3.org/2000/svg">
<path d="M10.0747 0.744772C7.20053 -0.139582 5.87406 8.26167 6.9795 11.3569C8.08494 14.4522 4.32642 17.1053 6.97948 19.3162C9.63254 21.5271 11.4012 19.3162 14.7176 17.1053C18.0339 14.8944 18.0339 17.7686 22.8978 17.1053C27.7618 16.442 22.8977 4.28212 19.3602 5.38756C15.8228 6.493 12.9488 1.62913 10.0747 0.744772Z" stroke="#0B0C0E" stroke-width="1.30303"/>
<path d="M7.3364 4.00234C4.46225 3.11799 3.13578 11.5192 4.24122 14.6145C5.34666 17.7098 1.58814 20.3629 4.2412 22.5737C6.89426 24.7846 8.66297 22.5737 11.9793 20.3629C15.2956 18.152 15.2956 21.0261 20.1596 20.3629C25.0235 19.6996 20.1594 7.53969 16.622 8.64513C13.0846 9.75057 10.2105 4.88669 7.3364 4.00234Z" stroke="#0B0C0E" stroke-width="1.30303"/>
<path d="M4.73044 7.25966C1.85629 6.37531 0.529821 14.7766 1.63526 17.8718C2.7407 20.9671 -1.01782 23.6202 1.63524 25.8311C4.2883 28.042 6.05701 25.8311 9.37333 23.6202C12.6897 21.4093 12.6897 24.2834 17.5536 23.6202C22.4175 22.9569 17.5534 10.797 14.016 11.9025C10.4786 13.0079 7.60459 8.14402 4.73044 7.25966Z" stroke="#0B0C0E" stroke-width="1.30303"/>
</svg>
