<svg width="30" height="26" viewBox="0 0 30 26" fill="none" xmlns="http://www.w3.org/2000/svg">
<path d="M3.23584 23.9507C4.45288 19.0826 11.3495 19.0826 13.3779 14.6201C15.4063 10.1576 12.1608 6.50644 17.029 4.47804C21.8972 2.44963 23.9256 2.85531 25.1426 0.826904" stroke="#0B0C0E" stroke-width="0.811363" stroke-linecap="round"/>
<path d="M5.26416 23.9507C6.4812 19.0826 13.3778 19.0826 15.4062 14.6201C17.4346 10.1576 14.1892 6.50644 19.0573 4.47804C23.9255 2.44963 25.9539 2.85531 27.171 0.826904" stroke="#0B0C0E" stroke-width="0.811363" stroke-linecap="round"/>
<path d="M1.20654 23.9507C2.42359 19.0826 9.32017 19.0826 11.3486 14.6201C13.377 10.1576 10.1315 6.50644 14.9997 4.47804C19.8679 2.44963 21.8963 2.85531 23.1133 0.826904" stroke="#0B0C0E" stroke-width="0.811363" stroke-linecap="round"/>
<path d="M6.88623 24.762C8.10327 19.8938 14.9999 19.8938 17.0283 15.4314C19.0567 10.9689 15.8112 7.31772 20.6794 5.28932C25.5476 3.26091 27.576 3.66659 28.793 1.63818" stroke="#0B0C0E" stroke-width="0.811363" stroke-linecap="round"/>
</svg>
