<?xml version="1.0" encoding="utf-8"?>
<!-- Generator: Adobe Illustrator 26.4.1, SVG Export Plug-In . SVG Version: 6.00 Build 0)  -->
<svg version="1.1" id="Layer_1" xmlns="http://www.w3.org/2000/svg" xmlns:xlink="http://www.w3.org/1999/xlink" x="0px" y="0px"
	 viewBox="0 0 1619.3 536.1" style="enable-background:new 0 0 1619.3 536.1;" xml:space="preserve">
<g>
	<path d="M642.9,505.4c-0.9-0.1-1.8-0.2-2.6-0.4c-2.3-0.4-4.5-1-6.5-2.1c-3.5-1.9-5.5-4.8-6.2-8.6c-0.2-1.2-0.3-2.5,0-3.7
		c0.5-2.2,1.8-3.9,4-4.7c2.1-0.8,3.9-0.4,5.5,1.1c0.8,0.7,1.5,1.5,2.3,2.1c2.3,1.7,5,2.4,7.9,2.1c2.5-0.3,4.9-0.9,7.2-1.9
		c3.5-1.6,6.2-4.2,8.1-7.6c1.4-2.6,2.2-5.3,2.9-8.2c0.7-3,1.1-6.1,1.3-9.2c0.2-2.6,0.4-5.2,0.4-7.8c0-0.6,0.1-1.1,0.1-1.7
		c0-0.2,0.1-0.5-0.1-0.6c-0.2-0.1-0.4,0.1-0.6,0.2c-1,0.5-1.9,1.1-2.9,1.7c-1.6,0.9-3.1,1.8-4.8,2.5c-4,1.6-8.1,1.5-12-0.3
		c-4.6-2-8.2-5.2-11.1-9.2c-3.3-4.6-5.2-9.7-6.2-15.2c-0.7-3.7-0.9-7.3-0.7-11c0.1-2.6,0.3-5.2,1.1-7.7c0.3-1.1,0.8-2.3,1.3-3.3
		c1.3-2.4,3.7-3.6,6.3-3.2c2.7,0.5,4.7,2.7,4.8,5.4c0.1,1.2-0.1,2.5-0.2,3.7c-0.3,2.7-0.6,5.5-0.5,8.3c0.2,3.5,0.9,6.9,2.3,10.2
		c0.7,1.6,1.5,3.2,2.6,4.7c1.5,2.1,3.5,3.6,6,4.5c0.5,0.2,1,0.2,1.5-0.1c1.9-1,3.2-2.5,4.1-4.5c0.8-1.8,1.2-3.6,1.5-5.5
		c0.3-1.7,0.4-3.4,0.5-5.2c0.2-3.3,0.3-6.6,0.8-9.8c0.2-1.4,0.5-2.7,1.2-3.9c2.3-4.1,8.1-4.9,11.5-1c1.3,1.5,2.3,3.3,2.9,5.2
		c0.9,2.8,1.9,5.6,2.6,8.4c0.6,2.2,0.9,4.4,1.1,6.7c0.2,3,0.4,6,0.6,9c0.2,4,0.2,8,0.2,12.1c-0.1,6.1-0.7,12.2-1.8,18.2
		c-0.7,3.8-1.7,7.5-3.4,11c-3.5,7.4-8.9,12.9-16.4,16.2c-3.9,1.7-8,2.7-12.2,3.1c-0.1,0-0.3,0.1-0.4,0.1H642.9L642.9,505.4z"/>
	<path d="M580.3,368.3c0.1,0,0.2,0.1,0.3,0.1c2.8,0.8,4.2,2.8,4.7,5.5c0.1,0.6,0.1,1.1,0.1,1.7c0.1,2.7,0.1,5.4,0.2,8.1
		c0.1,3,0,6,0.1,9c0.1,2.3,0.1,4.6,0.1,6.9c0.1,2.4,0.2,4.9,0.3,7.3c0.1,1,0.1,2.1,0.1,3.1c0,0.2,0,0.3,0,0.5
		c0.1,0.6,0.2,0.6,0.8,0.7c2.4,0.2,4.9,0.3,7.3,0.6c4.4,0.5,8.2,2.2,11.4,5.3c4.7,4.5,7.5,10.1,8.4,16.5c1.2,8.1-0.9,15.2-6.1,21.5
		c-2.4,2.9-5.3,5.1-8.6,6.8c-4,2.1-8.2,3.6-12.6,4.5c-1.7,0.3-3.3,0.5-5,0.1c-2.5-0.5-4.3-1.9-5.5-4.1c-0.9-1.5-1.4-3.2-1.7-5
		c-0.6-2.9-0.9-5.9-1-8.9c-0.1-2.4,0-4.8-0.1-7.2c-0.1-3.2-0.1-6.4-0.2-9.5c-0.1-2.8,0-5.6-0.1-8.4c-0.1-3.6,0-7.3-0.2-10.9
		c-0.1-3.5,0-6.9-0.1-10.4c-0.1-3.8,0-7.7-0.1-11.5c-0.1-1.8-0.1-3.7-0.1-5.5c0-0.3,0-0.5-0.1-0.8v-4.6c0.2-0.6,0.2-1.3,0.2-2
		c0.1-1.3,0.2-2.6,0.6-3.9c0.5-1.7,1.3-3.2,2.8-4.3c0.7-0.5,1.5-0.8,2.3-1.1C579.2,368.3,579.8,368.3,580.3,368.3z M587.2,425.5
		c-0.1,0.1-0.1,0.3-0.1,0.4c-0.2,1.7-0.1,3.3-0.2,5c-0.1,2.1,0,4.3,0.1,6.4c0.1,2.9,0.4,5.7,0.8,8.6c0.2,1.4,0.4,2.7,0.6,4.1
		c0.1,0.6,0.1,0.6,0.7,0.5c2.9-0.8,5.6-2,7.9-4c2.5-2.2,3.8-5,3.9-8.3c0.1-2.6-0.6-5.1-1.7-7.4c-0.2-0.3-0.4-0.5-0.7-0.6
		c-3.6-1.5-7.2-2.9-10.8-4.4C587.5,425.5,587.4,425.4,587.2,425.5L587.2,425.5z"/>
	<path d="M1046.5,475c0,0.2-0.1,0.3-0.1,0.5c-0.1,1.5-0.8,2.6-1.9,3.5c-2,1.5-4.1,1.7-6.3,0.6c-0.7-0.4-1.3-0.9-1.7-1.5
		c-1.7-2.6-3-5.3-3.8-8.3c-1.2-5-2.3-10-3.3-15.1c-0.9-4.2-1.9-8.4-2.9-12.7c-0.1-0.6-0.2-1.3-0.5-1.9c-0.2,0-0.3,0.1-0.5,0.2
		c-1,0.8-1.9,1.6-2.9,2.4c-0.6,0.5-1,1.1-1.4,1.7c-1.2,2.1-2.3,4.3-3.4,6.4c-0.7,1.4-1.4,2.8-2.2,4.1c-0.9,1.6-2.2,2.9-4,3.6
		c-2.3,0.9-6.1,0.5-8.1-1.8c-1-1.1-1.5-2.4-1.8-3.8c-0.4-2.4-0.8-4.9-1.1-7.3c-0.4-2.8-0.8-5.7-1.2-8.5c-0.4-3.1-0.8-6.1-1.2-9.2
		c-0.3-2.3-0.6-4.6-0.8-7c-0.2-1.5-0.2-3-0.3-4.5c-0.1-1.2-0.1-2.3-0.1-3.5c0-0.6,0.1-1.3,0.2-1.9c0.5-2.7,2.3-4.3,4.8-5.1
		c0.8-0.3,1.7-0.1,2.5,0.2c0.6,0.2,1.2,0.5,1.7,0.8c0.7,0.5,1.3,1.1,1.7,1.9c0.7,1.8,1.2,3.7,1.6,5.6c0.8,4,1.5,8,2.1,12.1
		c0.2,1.4,0.4,2.8,0.7,4.2c0.1,0.5,0.2,0.5,0.5,0.2c1.2-0.9,2.4-1.7,3.6-2.6c1.6-1.2,3.2-2.4,5-3.3c1.7-0.9,3.5-1.5,5.5-1.5
		c2.7,0,5,1,6.9,2.8c1.7,1.7,2.9,3.7,4,5.8c1,2,1.6,4.1,2.1,6.3c1.3,5.5,2.5,11,3.7,16.5c1,4.5,1.9,9,2.9,13.4
		c0.1,0.3,0,0.6,0.2,0.9L1046.5,475L1046.5,475z"/>
	<path d="M820.8,424.1c-1.1,1.4-2.3,2.6-3.1,4.3c-2.2,5.1-4.4,10.2-6.5,15.3c-0.5,1.2-1.1,2.4-1.9,3.5c-1.1,1.5-2.5,2.6-4.3,3
		c-4.8,0.9-8.5-2.3-8.9-6.4c-0.2-1.7-0.3-3.5-0.3-5.2c0-3.2-0.1-6.4-0.2-9.5c-0.1-2.8-0.5-5.4-1.9-7.9c0-0.1-0.1-0.2-0.1-0.2
		c-0.1-0.2-0.2-0.4-0.4-0.5c-0.3,0-0.3,0.3-0.4,0.5c-1.2,2.4-1.9,4.9-2.4,7.5c-0.4,2.2-0.5,4.4-0.7,6.5c-0.3,2.7-0.5,5.5-1.1,8.2
		c-0.4,1.8-1.3,3.2-2.9,4.2c-3.7,2.3-9.5,0.4-10.1-4.9c-0.4-3.2-0.7-6.4-1.1-9.5c-0.3-2.5-0.5-5.1-0.8-7.6c-0.3-2.9-0.5-5.7-0.8-8.6
		c-0.1-1.6-0.2-3.3-0.3-4.9c-0.1-1-0.1-2-0.1-3c0-0.5,0.1-1.1,0.2-1.6c0.6-2.5,2.4-4,5-4.2c1.1-0.1,2.2,0.1,3.3,0.3
		c0.4,0.1,0.7,0.2,1.1,0.3c1.7,0.5,3.3,0.2,4.9-0.5c1.5-0.7,3-1.2,4.6-1.6c3.4-0.8,6.4,0.1,8.9,2.5c1.8,1.8,3.2,3.9,4.5,6
		c0.9,1.4,1.7,2.9,2.5,4.4c0.1,0.1,0.1,0.2,0.2,0.3c0.3,0.4,0.3,0.5,0.7,0.1c1.3-1.3,2.5-2.6,3.8-3.8c1.1-1.1,2.4-2.2,3.8-3
		c4-2.2,8.3-1.9,11.8,1.2c1.3,1.2,2.3,2.5,3.3,4c2.4,3.8,4.1,8,5.4,12.3c1.5,4.8,2.9,9.6,4.7,14.3c1.1,3,2.4,5.9,4.3,8.6
		c0.6,0.9,1.3,1.8,2.1,2.7c1.1,1.2,1.8,2.5,2.1,4.1c0.7,4.3-2.4,7-5.6,7.4c-1.5,0.2-2.9-0.1-4.1-1c-2.8-2.1-5.2-4.5-7-7.5
		c-1.2-2.1-2.2-4.3-3.2-6.5c-1.4-3.4-2.8-6.9-4-10.4c-0.9-2.6-1.7-5.3-2.5-7.9C822.7,427.4,821.8,425.9,820.8,424.1L820.8,424.1z"/>
	<path d="M722.1,442.9c1.4,0.5,2.7,0.9,4,1c2.6,0.3,5-0.4,7.1-1.9c1-0.6,1.9-1.2,3-1.7c1.6-0.7,3.3-1,5.1-0.7c2,0.4,3.4,1.6,4.3,3.5
		c0.7,1.6,0.7,3.2,0,4.8c-0.4,1-1,1.9-1.8,2.8c-3.6,4.1-8.2,6.3-13.5,7.2c-3.5,0.5-6.9,0.3-10.4-0.6c-3.4-1-6.4-2.6-9-5
		c-2.9-2.7-5.1-5.7-6.3-9.5c-0.7-1.9-1-3.9-1.4-5.9c-0.4-2.5-0.6-5.1-0.4-7.6c0.3-5.8,2-11.2,5.1-16.1c2.7-4.3,6.2-7.8,10.4-10.6
		c2.1-1.4,4.3-2.4,6.8-2.7c3.3-0.5,6.3,0.3,9.1,2.2c1.8,1.2,3.3,2.8,4.5,4.7c1.9,3,3.3,6.1,4,9.6c1,5.7-0.5,10.7-4.3,15
		c-1.8,1.9-3.9,3.5-6,4.9c-3.1,2.1-6.3,4.1-9.4,6.1C722.7,442.4,722.4,442.6,722.1,442.9L722.1,442.9z M717.7,427.4
		c0,0.2,0,0.4,0,0.7c0,0.7,0.1,0.8,0.7,0.7c1.1-0.2,2.2-0.5,3.3-1c1.5-0.7,2.8-1.7,4.1-2.8c0.9-0.8,1.9-1.7,2.7-2.7
		c0.8-1,0.9-2.1,0.5-3.2c-0.1-0.4-0.3-0.7-0.4-1c-0.5-1.1-1.2-2.1-1.9-3.1c-0.3-0.5-0.4-0.5-0.9-0.2c-1.5,1-2.9,2.1-4.2,3.4
		C719.1,420.7,717.8,423.8,717.7,427.4L717.7,427.4z"/>
	<path d="M877.5,434.7c0.8,0.1,1.5,0.2,2.3-0.1c1.5-0.5,3-1,4.6-1.3c0.9-0.1,1.7-0.2,2.6-0.1c1.5,0.2,2.6,0.9,3.5,2
		c1,1.2,1.6,2.6,2.3,4c0.8,1.8,1.4,3.6,2,5.4c0.6,1.6,1.3,3.2,2,4.7c1.7,3.6,3.6,7.1,5.9,10.4c1.4,2.1,3,4,4.6,5.9
		c0.9,1.1,1.6,2.2,2.2,3.5c1.1,2.5,0.4,6-1.7,7.8c-1.5,1.4-3.3,1.7-5.2,0.9c-2.1-0.9-4.1-2.1-5.8-3.7c-1.2-1.2-2.2-2.5-3.2-3.8
		c-3.2-4.2-6.1-8.6-8.6-13.2c-0.4-0.7-0.8-1.5-1.2-2.2c-0.3-0.5-0.3-0.5-0.7-0.1c-1,0.9-2,1.8-3,2.7c-1.2,1.1-2.5,2.2-3.9,3.2
		c-1.7,1.2-3.5,2-5.5,2.4c-3.8,0.7-7.4-1.1-9.2-4.4c-0.9-1.6-1.4-3.4-1.6-5.3c-0.2-1.7-0.3-3.5-0.2-5.3c0.2-6.9,1.9-13.4,5.6-19.3
		c2.7-4.4,6.2-8.2,10.3-11.4c2.3-1.8,4.9-2.8,7.9-2.7c2.9,0,5.4,1.1,7.6,3c0.8,0.7,1.4,1.4,2,2.2c2.6,3.6,0.1,8.4-3.7,9
		c-1.2,0.2-2.3,0.2-3.5-0.1c-1-0.3-2-0.5-3-0.8c-0.3-0.1-0.6,0-0.8,0.3c-1.5,2.1-3,4.1-4.5,6.2C877.5,434.5,877.5,434.6,877.5,434.7
		L877.5,434.7z"/>
	<path d="M932,420.5c0-2.8,0-5.7,0-8.5c0-2.9,0.1-5.7,0.3-8.6c0.1-2.9,0.3-5.9,0.6-8.8c0.3-4.1,0.7-8.1,1.4-12.1
		c0.3-1.8,0.7-3.6,1.4-5.3c0.9-2.1,2.5-3.5,4.8-3.9c2.7-0.4,6,0.7,6.5,4.9c0.1,0.8,0.1,1.7,0,2.5c-0.1,1.6-0.1,3.1-0.2,4.7
		c-0.1,2.5-0.3,4.9-0.4,7.4c-0.1,1.5-0.1,3.1-0.2,4.6c-0.1,2.3-0.3,4.7-0.4,7c-0.1,2.8-0.3,5.7-0.1,8.6c0.1,1.8,0,3.5,0.1,5.3
		c0.1,2.8,0.2,5.7,0.2,8.5c0.1,2.4,0.1,4.7,0.2,7.1c0.1,3,0.2,5.9,0.3,8.9c0.1,2.7,0.4,5.5,1.5,8c0.5,1.2,1.1,2.3,1.9,3.4
		c0.7,1,1.3,2,1.6,3.2c0.6,2.1,0,3.8-1.4,5.4c-1.4,1.4-3.1,2.2-5,2.4c-2.2,0.3-4.2-0.2-5.9-1.6c-0.7-0.6-1.2-1.3-1.7-2.1
		c-1.9-2.9-3.1-6.1-3.6-9.5c-0.5-3.1-1-6.2-1.3-9.3c-0.1-1.3-0.2-2.5-0.3-3.8c-0.1-2.3-0.1-4.5-0.2-6.8
		C932,428.2,931.9,424.3,932,420.5L932,420.5z"/>
	<path d="M975.1,426.8c2.8,0,5.3,2,6.1,4.9c0.3,1.2,0.4,2.4,0.5,3.7c0.2,2.4,0.2,4.8,0.3,7.2c0.1,2.2-0.2,4.4-0.3,6.6
		c-0.1,2.8-0.1,5.5,0.6,8.2c0.5,1.8,1.2,3.4,2.3,4.9c1.1,1.4,1.2,2.9,0.4,4.4c-0.9,1.9-2.4,3.3-4.5,3.8c-1,0.3-2,0.2-2.9-0.3
		c-2-1.1-3.8-2.4-5.3-4.1c-1.3-1.6-2.1-3.4-2.7-5.4c-0.4-1.4-0.5-2.8-0.6-4.3c-0.4-7.1-0.3-14.2-0.3-21.3c0-1.2,0-2.3,0.3-3.5
		c0.7-2.5,2.2-4.1,4.7-4.6C974.4,426.8,974.8,426.8,975.1,426.8L975.1,426.8z"/>
	<path d="M970.6,404.6c0.6,0,1.1,0.1,1.6,0.1c2.4,0.4,3.9,2,4.7,4.2c0.4,1.1,0.2,2.2-0.2,3.2c-0.6,1.7-1.7,3.2-2.8,4.6
		c-0.8,0.9-1.7,1.8-2.7,2.4c-1.3,0.8-2.7,1-4.1,0.6c-1.2-0.3-2.3-0.9-3.2-1.8c-1-0.9-1.7-2-2.2-3.3c-0.8-1.9-0.5-3.8,0.6-5.5
		C964.2,406.2,967,404.7,970.6,404.6L970.6,404.6z"/>
</g>
<g>
	<path d="M91.8,245c0,40.9,8.1,71.4,33.2,71.4c28.3,0,29.6-25.2,36.4-110.9c0.9-15.3,6.3-19.3,11.2-19.3c9.4,0,11.2,11.7,27,31
		c14.4,17.5,20.7,25.2,20.7,37.3c0,51.2-51.2,75-101.1,75c-64.7,0-100.2-20.7-100.2-74.6c0-66,83.1-118.1,83.1-160.8
		c0-11.2-6.3-17.1-18.9-17.1c-29.6,0-46.7,47.6-62.9,47.6c-6.7,0-10.3-3.1-10.3-10.3c0-4.9,2.2-22,2.2-32.8
		c0-10.3-2.7-22.9-2.7-29.6c0-7.6,1.3-13.5,12.6-13.5c22.5,0,55.2,3.6,96.6,3.6c34.1,0,84-3.1,91.2-3.1c9.9,0,14.4,5.4,14.4,13.9
		c0,31.9-22.5,77.7-39.1,77.7c-20.2,0-25.6-42.2-50.3-42.2C110.7,88.3,91.8,157.9,91.8,245z"/>
	<path d="M240.1,181.2c0-109.6,32.8-143.3,87.1-143.3c18,0,47.6,11.2,67.4,11.2c23.8,0,28.7-13.9,36.8-13.9
		c10.8,0,14.4,24.3,14.4,41.3c0,28.3-10.8,45.4-40.4,45.4c-38.6,0-75.5-39.1-114.1-39.1c-14.8,0-29.2,9-29.2,27.4
		c0,37.3,57.5,54.8,96.1,54.8c32.3,0,45.4-14.8,53.9-14.8c4.5,0,6.7,2.2,6.7,9.9c0,37.3-4.9,59.7-28.7,59.7
		c-34.6,0-49.4-51.7-94.8-51.2c-17.5-0.4-28.3,13-28.3,32.3c0,32.8,31.4,67.8,81.8,67.8c60.6,0,72.3-41.3,88.5-41.3
		c6.7,0,11.2,8.1,11.2,25.2c0,47.2-41.3,76.8-87.6,76.8C281.8,329.5,240.1,281.4,240.1,181.2z"/>
	<path d="M561.7,41.1c22.5,0,44-1.3,63.8-1.3c41.8,0,69.2,27.4,69.2,61.1c0,64.2-89.8,67.8-89.8,97c0,9,9.4,12.1,21.6,13.9
		c36.4,3.1,51.7,13.9,58.4,48.5c3.1,17.1,9.9,30.1,19.3,37.7c8.5,6.3,11.2,10.3,11.2,15.7c0,9.9-10.3,13.9-34.1,13.9
		c-56.1,0-72.8-25.2-73.7-71.9c-0.4-27.4-11.2-41.8-41.8-42.7c-7.2-0.4-11.2-4.9-11.2-9.9s3.1-8.1,9.4-9.4
		c44.9-9.9,59.7-40.4,59.7-74.6c0-35.5-12.6-49.4-36.4-49.4c-37.3,0-64.2,50.3-64.2,120.8c0,72.8,64.7,98.4,64.7,126.7
		c0,5.8-2.7,9.4-10.3,9.4c-5.8,0-30.1-2.2-49.9-2.2s-44.5,1.3-57.5,1.3c-5.8,0-9.9-4.9-9.9-12.1c0-16.6,49.9-69.6,49.9-123.5
		c0-90.3-35-124.4-35-140.6c0-7.6,4.5-10.8,12.6-10.8C497.9,38.8,532.9,41.1,561.7,41.1z"/>
	<path d="M826.7,41.1c22.5,0,44-1.3,63.8-1.3c41.8,0,69.2,27.4,69.2,61.1c0,64.2-89.8,67.8-89.8,97c0,9,9.4,12.1,21.6,13.9
		c36.4,3.1,51.7,13.9,58.4,48.5c3.1,17.1,9.9,30.1,19.3,37.7c8.5,6.3,11.2,10.3,11.2,15.7c0,9.9-10.3,13.9-34.1,13.9
		c-56.1,0-72.8-25.2-73.7-71.9c-0.4-27.4-11.2-41.8-41.8-42.7c-7.2-0.4-11.2-4.9-11.2-9.9s3.1-8.1,9.4-9.4
		c44.9-9.9,59.7-40.4,59.7-74.6c0-35.5-12.6-49.4-36.4-49.4c-37.3,0-64.2,50.3-64.2,120.8c0,72.8,64.7,98.4,64.7,126.7
		c0,5.8-2.7,9.4-10.3,9.4c-5.8,0-30.1-2.2-49.9-2.2c-19.8,0-44.5,1.3-57.5,1.3c-5.8,0-9.9-4.9-9.9-12.1c0-16.6,49.9-69.6,49.9-123.5
		c0-90.3-35-124.4-35-140.6c0-7.6,4.5-10.8,12.6-10.8C762.9,38.8,798,41.1,826.7,41.1z"/>
	<path d="M1111.9,42c41.3,0,74.6-3.6,84.9-3.6c8.5,0,13,6.3,13,13.9c0,15.3-20.7,46.3-20.7,102.9c0,56.1,27.8,134.3,27.8,158.1
		c0,9.4-5.8,12.6-11.2,12.6c-6.3,0-19.3-3.1-28.7-3.1c-11.7,0-29.6,3.6-34.6,3.6c-6.3,0-11.2-4-11.2-9.9c0-18.9,49-48.5,49-98.4
		c0-14.4-6.7-26.1-24.7-26.1c-27.8,0-48.5,13.9-70.1,13.9c-18,0-24.3-13.5-24.3-28.7c0-15.7,7.2-27.9,19.8-27.9s27,15.3,52.6,15.3
		c30.1,0,43.6-17.1,43.6-41.3c0-25.6-19.3-43.6-52.6-43.6c-55.2,0-92.5,62.4-92.5,122.6c0,42.2,20.7,62.4,59.7,65.6
		c18.9,0.9,24.3,7.6,24.3,20.2c0,27.8-21.1,38.6-68.3,38.6c-44.9,0-54.4-11.7-54.4-25.6c0-17.5,25.2-65.6,25.2-115
		c0-79.5-5.8-111.8-5.8-134.8c0-6.7,4.9-12.6,13.9-12.6C1039.6,38.8,1068.4,42,1111.9,42z"/>
	<path d="M1355,316c0,6.7-3.6,9.9-9.9,9.9c-5.4,0-26.5-1.8-43.6-1.8c-17.5,0-40,1.8-51.2,1.8c-6.7,0-11.2-5.4-11.2-13
		c0-20.2,49-89.8,49-144.2c0-60.6-34.1-105.6-34.1-119c0-7.2,4-10.8,12.6-10.8c5.8,0,18,0.9,30.5,0.9c13,0,26.5-0.9,33.2-0.9
		c5.8,0,9,4.5,9,9.9c0,15.3-37.3,59.3-37.3,119.9C1302,228.4,1355,290.4,1355,316z"/>
	<path d="M1377.9,39.3c8.1,0,16.2,1.8,24.3,1.8c10.3-0.4,20.2-2.2,27.4-2.2c6.3,0,9,4,9,10.8c0,8.5-4,20.2-4,31.9
		c0,5.8,2.2,13.5,12.6,13.5c22.9,0,49.4-58.8,97.9-58.8c25.6,0,46.3,18.4,46.3,50.8c0,72.8-68.3,95.7-68.3,136.1
		c0,23.4,21.1,28.3,35.5,28.3c21.6,0,31-9.4,38.6-19.8c2.7-3.1,4.9-5.8,7.6-5.8c4.9,0,9,8.5,9,24.3c0,34.1-14.4,77.3-57.5,77.3
		c-34.6,0-57-21.1-57-57c0-45.8,27.4-77.7,27-132.1c0.4-31.4-9.4-45.8-36.8-45.8c-34.1,0-66.5,48.5-66.5,115.4
		c0,57.5,62.9,85.3,62.9,106c0,10.8-7.2,15.7-64.2,15.7c-47.6,0-53.9-3.1-53.9-14.4c0-24.3,42.7-61.1,42.7-110.9
		c0-60.2-46.3-122.6-46.3-149.1C1363.9,44.2,1370.7,39.3,1377.9,39.3z"/>
</g>
</svg>
